<svg 
 xmlns="http://www.w3.org/2000/svg"
 xmlns:xlink="http://www.w3.org/1999/xlink"
 width="835px" height="187px">
<path fill-rule="evenodd"  fill="rgb(0, 0, 0)"
 d="M491.978,109.638 L477.728,104.388 L468.729,114.437 L464.979,114.437 L464.979,52.190 L465.729,44.690 L439.930,38.541 L438.430,40.790 L450.729,52.490 L450.729,125.837 C438.580,129.287 425.81,131.987 411.431,133.787 L411.431,111.138 C425.231,108.738 435.280,99.438 435.280,85.639 C435.280,69.439 421.631,59.390 404.81,59.390 C386.682,59.390 373.33,69.439 373.33,85.639 C373.33,99.738 383.382,109.38 397.482,111.288 L397.482,135.287 L389.982,135.737 L359.983,133.487 L358.483,137.236 L376.483,146.986 L389.982,139.336 C409.931,138.286 431.980,134.537 450.729,129.137 L450.729,142.36 C450.729,151.36 452.529,167.985 454.179,178.35 L458.679,178.35 C461.979,167.235 464.979,147.586 464.979,137.536 L464.979,117.137 L490.478,117.137 L491.978,109.638 ZM388.32,85.639 C388.32,75.139 392.682,62.390 404.81,62.390 C415.631,62.390 420.131,75.139 420.131,85.639 C420.131,95.988 415.631,108.738 404.81,108.738 C392.682,108.738 388.32,95.988 388.32,85.639 Z"/>
<path fill-rule="evenodd"  fill="rgb(145, 56, 109)"
 d="M329.181,18.238 L329.181,132.36 C329.181,145.436 325.181,171.636 320.781,186.35 L314.781,186.35 C312.581,172.636 310.181,150.36 310.181,138.36 L310.181,111.836 C272.782,131.36 242.382,137.236 199.983,139.36 L199.983,88.837 L191.983,79.837 L192.983,77.837 L218.983,79.437 L252.982,79.437 L254.982,40.838 L226.183,40.838 L212.183,50.837 L191.183,38.838 L192.183,34.838 L226.183,36.438 L248.982,36.438 L260.982,31.838 L277.982,36.838 L269.582,74.837 L273.582,80.837 L273.582,83.837 L218.983,83.837 L218.983,130.36 C255.182,129.836 290.182,118.836 310.181,107.837 L310.181,18.638 L293.782,3.38 L295.781,0.38 L330.181,8.238 L329.181,18.238 ZM47.583,95.637 L27.983,105.437 L0.383,92.637 L2.383,87.637 L47.583,91.237 L73.782,91.237 L73.782,61.237 L64.182,51.837 L65.182,49.837 L93.382,54.237 L92.382,62.237 L92.382,91.237 L130.181,91.237 L147.781,79.837 L174.381,87.637 L173.381,95.637 L47.583,95.637 ZM119.181,75.637 C122.581,59.637 125.981,37.38 125.981,22.438 L68.382,22.438 L51.382,34.438 L24.383,21.438 L26.383,16.438 L66.182,18.38 L120.981,18.38 L132.981,12.438 L150.581,18.438 C144.981,40.38 135.781,61.237 125.181,75.637 L119.181,75.637 ZM89.182,116.236 C114.382,116.236 132.781,131.436 132.781,150.36 C132.781,170.836 114.382,184.35 89.182,184.35 C63.982,184.35 45.783,170.836 45.783,150.36 C45.783,131.436 63.982,116.236 89.182,116.236 ZM89.182,179.635 C106.382,179.635 112.982,165.836 112.982,150.36 C112.982,136.436 106.382,120.636 89.182,120.636 C71.982,120.636 65.382,136.436 65.382,150.36 C65.382,165.836 71.982,179.635 89.182,179.635 Z"/>
<path fill-rule="evenodd"  fill="rgb(51, 89, 128)"
 d="M833.631,18.238 L833.631,132.36 C833.631,145.436 829.631,171.636 825.231,186.35 L819.231,186.35 C817.31,172.636 814.631,150.36 814.631,138.36 L814.631,111.836 C777.232,131.36 746.832,137.236 704.433,139.36 L704.433,88.837 L696.433,79.837 L697.433,77.837 L723.433,79.437 L757.432,79.437 L759.432,40.838 L730.633,40.838 L716.633,50.837 L695.633,38.838 L696.633,34.838 L730.633,36.438 L753.432,36.438 L765.432,31.838 L782.432,36.838 L774.32,74.837 L778.32,80.837 L778.32,83.837 L723.433,83.837 L723.433,130.36 C759.632,129.836 794.632,118.836 814.631,107.837 L814.631,18.638 L798.232,3.38 L800.232,0.38 L834.631,8.238 L833.631,18.238 ZM651.831,75.437 C651.831,88.837 648.231,107.37 643.831,120.36 L637.231,120.36 C635.31,108.37 632.831,92.37 632.831,80.37 L632.831,59.637 L620.232,60.237 L610.832,67.837 L592.232,58.237 L593.232,55.237 L619.232,56.37 L632.831,55.437 L632.831,18.638 L616.432,3.38 L618.432,0.38 L652.831,8.238 L651.831,18.238 L651.831,75.437 ZM574.632,73.37 L591.432,73.637 C594.832,78.237 604.832,92.837 608.832,101.37 L600.432,107.37 C590.232,96.37 580.32,84.837 569.232,73.837 C564.832,78.837 560.632,83.237 556.632,87.37 C545.633,97.437 526.33,107.637 504.833,114.36 L501.833,111.36 C516.33,103.437 532.633,90.437 545.433,75.637 C553.433,66.437 567.432,47.237 576.32,32.38 L548.33,32.38 L533.33,42.38 L512.33,31.38 L514.33,26.38 L548.33,28.38 L575.32,28.38 L585.432,22.38 L602.232,28.38 C591.632,45.437 581.632,59.437 572.32,70.437 L574.632,73.37 ZM606.632,116.236 C631.431,116.236 649.231,131.436 649.231,150.36 C649.231,170.836 631.431,184.35 606.632,184.35 C581.832,184.35 564.232,170.836 564.232,150.36 C564.232,131.436 581.832,116.236 606.632,116.236 ZM606.632,179.635 C623.431,179.635 629.831,165.836 629.831,150.36 C629.831,136.436 623.431,120.636 606.632,120.636 C589.832,120.636 583.432,136.436 583.432,150.36 C583.432,165.836 589.832,179.635 606.632,179.635 Z"/>
</svg>